# File created by Blade
# Date/Time:  Tue Apr 07 21:25:57 2015
# Frame Rate: 120.000 fps
#------------------------------------------------------
:FULLY-SPECIFIED
:DEGREES
435
root 23.445194 32.379399 5.308103 26.704240 -85.169167 13.760463
Spine 0.458128 -6.086765 -0.304932
Head -15.140112 -1.399410 5.229395
LeftShoulder 1.729913 25.839806 28.141828
LeftArm 84.723022 3.297283 -62.008226
LeftForeArm -9.476061 -0.000000 23.383967
LeftHand 8.277259 -0.000000 -8.318457
LeftHandThumb1 -26.253704 0.000000 33.147579
RightShoulder 6.519478 16.051896 -21.999528
RightArm 34.181767 -15.602660 78.670485
RightForeArm -9.892329 -0.000000 38.633575
RightHand 8.862079 -0.000000 -0.614480
RightHandThumb1 -24.326973 -0.000000 -32.862282
LeftUpLeg -50.811714 -7.120019 3.328858
LeftLeg 5.420452 -0.000000 -0.000000
LeftFoot -1.157183 10.897845 -12.746089
LeftToeBase -7.345122 -0.000000 0.000000
RightUpLeg -53.413159 4.314963 -2.434129
RightLeg 7.882538 -0.000000 -0.000000
RightFoot 1.806013 -14.415442 4.581114
RightToeBase -3.910875 -0.000000 0.000000
436
root 23.467075 32.375832 5.294642 27.195619 -85.077284 13.942668
Spine 0.163585 -6.118078 -0.186440
Head -15.541364 -1.440955 5.176060
LeftShoulder 1.553439 26.687005 27.560775
LeftArm 83.516062 4.077495 -59.075302
LeftForeArm -8.066156 -0.000000 23.269766
LeftHand 7.190331 -0.000000 -7.302518
LeftHandThumb1 -26.253704 0.000000 33.147579
RightShoulder 6.318420 14.993466 -21.741990
RightArm 33.025880 -16.599975 78.326124
RightForeArm -11.733804 -0.000000 37.700230
RightHand 9.027408 0.000000 -1.067837
RightHandThumb1 -24.326973 -0.000000 -32.862282
LeftUpLeg -51.730497 -7.287177 3.597177
LeftLeg 5.799788 -0.000000 -0.000000
LeftFoot -1.441505 10.968023 -12.809354
LeftToeBase -6.991893 -0.000000 0.000000
RightUpLeg -54.238629 4.251727 -2.507234
RightLeg 8.122436 -0.000000 -0.000000
RightFoot 1.715573 -14.439646 4.718504
RightToeBase -3.884165 -0.000000 0.000000
437
root 23.465592 32.371305 5.284659 27.341448 -85.006479 14.189628
Spine 0.214659 -6.128942 -0.156650
Head -16.061252 -1.437502 5.269837
LeftShoulder 1.368120 27.460932 27.105239
LeftArm 82.604452 5.046348 -58.552851
LeftForeArm -5.134690 -0.000000 21.719905
LeftHand 7.110104 -0.000000 -8.125364
LeftHandThumb1 -26.253704 0.000000 33.147579
RightShoulder 6.053860 13.917607 -21.305582
RightArm 31.836894 -17.604796 77.864190
RightForeArm -13.328374 -0.000000 36.626879
RightHand 9.225434 -0.000000 -1.427334
RightHandThumb1 -24.326973 -0.000000 -32.862282
LeftUpLeg -52.333986 -7.507469 3.864415
LeftLeg 6.215543 -0.000000 -0.000000
LeftFoot -1.871386 11.044844 -12.861310
LeftToeBase -6.467535 -0.000000 0.000000
RightUpLeg -54.722356 4.156456 -2.488897
RightLeg 8.340179 -0.000000 -0.000000
RightFoot 1.582793 -14.398067 4.764453
RightToeBase -3.914628 -0.000000 0.000000
438
root 23.455055 32.368979 5.274222 27.904325 -84.931989 13.917090
Spine 0.425404 -6.140801 -0.079595
Head -16.708115 -1.403741 5.345016
LeftShoulder 1.162310 28.203792 26.516551
LeftArm 81.406252 5.985211 -57.573351
LeftForeArm -2.970569 0.000000 20.429630
LeftHand 6.880284 -0.000000 -8.677144
LeftHandThumb1 -26.253704 0.000000 33.147579
RightShoulder 5.721120 12.717528 -20.814879
RightArm 30.777673 -18.606103 77.268779
RightForeArm -14.796611 -0.000000 35.413014
RightHand 9.433465 -0.000000 -1.699864
RightHandThumb1 -24.326973 -0.000000 -32.862282
LeftUpLeg -52.751186 -7.810485 4.280118
LeftLeg 6.470593 -0.000000 -0.000000
LeftFoot -2.266636 11.204422 -12.849857
LeftToeBase -6.144057 -0.000000 0.000000
RightUpLeg -54.984977 4.175692 -2.555006
RightLeg 8.325184 -0.000000 -0.000000
RightFoot 1.390053 -14.463172 5.073369
RightToeBase -3.600077 -0.000000 0.000000
439
root 23.448432 32.364167 5.267557 28.772338 -84.788984 13.407550
Spine 0.573654 -6.182876 0.109944
Head -17.360831 -1.353382 5.309156
LeftShoulder 0.930262 28.824219 25.813152
LeftArm 79.929702 7.032701 -56.393587
LeftForeArm -1.551910 -0.000000 19.281519
LeftHand 6.372291 0.000000 -8.956243
LeftHandThumb1 -26.253704 0.000000 33.147579
RightShoulder 5.299492 11.502116 -20.398343
RightArm 29.699367 -19.599586 76.659051
RightForeArm -15.970042 -0.000000 34.019175
RightHand 9.857055 0.000000 -1.769709
RightHandThumb1 -24.326973 -0.000000 -32.862282
LeftUpLeg -53.362677 -8.032338 4.597176
LeftLeg 6.988455 -0.000000 -0.000000
LeftFoot -2.608822 11.173269 -12.700075
LeftToeBase -6.352484 -0.000000 0.000000
RightUpLeg -55.379792 4.082178 -2.496879
RightLeg 8.463250 -0.000000 -0.000000
RightFoot 1.235485 -14.447789 5.197772
RightToeBase -3.628721 -0.000000 0.000000
